<mxfile host="app.diagrams.net" modified="2021-03-01T06:17:32.399Z" agent="5.0 (Windows NT 10.0; Win64; x64) AppleWebKit/537.36 (KHTML, like Gecko) Chrome/88.0.4324.182 Safari/537.36 Edg/88.0.705.81" etag="R-7k3mVpPiTFRdIAwRFN" version="14.4.3" type="github">
  <diagram id="QDtG73jCpwaWWLSm4ETX" name="第 1 页">
    <mxGraphModel dx="1640" dy="441" grid="1" gridSize="10" guides="1" tooltips="1" connect="1" arrows="1" fold="1" page="1" pageScale="1" pageWidth="827" pageHeight="1169" math="0" shadow="0">
      <root>
        <mxCell id="0" />
        <mxCell id="1" parent="0" />
        <mxCell id="WCuqPz3NQp58f8Igei0k-4" value="" style="curved=1;endArrow=classic;html=1;fillColor=#eeeeee;strokeColor=#36393d;" edge="1" parent="1">
          <mxGeometry width="50" height="50" relative="1" as="geometry">
            <mxPoint x="440" y="400" as="sourcePoint" />
            <mxPoint x="360" y="430" as="targetPoint" />
            <Array as="points">
              <mxPoint x="410" y="430" />
            </Array>
          </mxGeometry>
        </mxCell>
        <mxCell id="WCuqPz3NQp58f8Igei0k-5" value="&lt;p style=&quot;margin-top: 0pt ; margin-bottom: 0pt ; margin-left: 0in ; direction: ltr ; unicode-bidi: embed ; word-break: normal&quot;&gt;&lt;span style=&quot;font-size: 16pt ; font-weight: bold&quot;&gt;不同&lt;/span&gt;&lt;span style=&quot;font-size: 16pt ; font-weight: bold&quot;&gt;种植&lt;/span&gt;&lt;span style=&quot;font-size: 16pt ; font-weight: bold&quot;&gt;体系中&lt;/span&gt;&lt;span style=&quot;font-size: 16pt ; font-weight: bold&quot;&gt;的&lt;/span&gt;&lt;span style=&quot;font-size: 16pt ; font-weight: bold&quot;&gt;辣椒&lt;/span&gt;&lt;span style=&quot;font-size: 16pt ; font-weight: bold&quot;&gt;根系分泌物&lt;/span&gt;&lt;span style=&quot;font-size: 16pt ; font-weight: bold&quot;&gt;变化&lt;/span&gt;&lt;/p&gt;" style="rounded=1;whiteSpace=wrap;html=1;fillColor=#eeeeee;strokeColor=#36393d;spacing=2;" vertex="1" parent="1">
          <mxGeometry x="-245" y="250" width="385" height="30" as="geometry" />
        </mxCell>
        <mxCell id="WCuqPz3NQp58f8Igei0k-6" value="&lt;p style=&quot;margin-top: 0pt ; margin-bottom: 0pt ; margin-left: 0in ; direction: ltr ; unicode-bidi: embed ; word-break: normal&quot;&gt;&lt;span style=&quot;font-size: 16pt ; font-weight: bold&quot;&gt;土壤理化&lt;/span&gt;&lt;/p&gt;" style="whiteSpace=wrap;html=1;rounded=1;fillColor=#eeeeee;strokeColor=#36393d;" vertex="1" parent="1">
          <mxGeometry x="-220" y="340" width="120" height="30" as="geometry" />
        </mxCell>
        <mxCell id="WCuqPz3NQp58f8Igei0k-8" value="&lt;p style=&quot;margin-top: 0pt ; margin-bottom: 0pt ; margin-left: 0in ; direction: ltr ; unicode-bidi: embed ; word-break: normal&quot;&gt;&lt;span style=&quot;font-size: 16pt ; font-weight: bold&quot;&gt;有机种植&lt;/span&gt;&lt;/p&gt;" style="whiteSpace=wrap;html=1;rounded=1;fillColor=#eeeeee;strokeColor=#36393d;" vertex="1" parent="1">
          <mxGeometry x="-207.5" y="430" width="40" height="110" as="geometry" />
        </mxCell>
        <mxCell id="WCuqPz3NQp58f8Igei0k-9" value="&lt;p style=&quot;margin-top: 0pt ; margin-bottom: 0pt ; margin-left: 0in ; direction: ltr ; unicode-bidi: embed ; word-break: normal&quot;&gt;&lt;span style=&quot;font-size: 16pt ; font-weight: bold&quot;&gt;常规种植&lt;/span&gt;&lt;/p&gt;" style="whiteSpace=wrap;html=1;rounded=1;fillColor=#eeeeee;strokeColor=#36393d;" vertex="1" parent="1">
          <mxGeometry x="-152.5" y="430" width="40" height="110" as="geometry" />
        </mxCell>
        <mxCell id="WCuqPz3NQp58f8Igei0k-10" value="&lt;p style=&quot;margin-top: 0pt ; margin-bottom: 0pt ; margin-left: 0in ; direction: ltr ; unicode-bidi: embed ; word-break: normal&quot;&gt;&lt;span style=&quot;font-size: 16pt ; font-weight: bold&quot;&gt;根系分泌物收集&lt;/span&gt;&lt;/p&gt;" style="whiteSpace=wrap;html=1;rounded=1;fillColor=#eeeeee;strokeColor=#36393d;" vertex="1" parent="1">
          <mxGeometry x="-30" y="340" width="180" height="30" as="geometry" />
        </mxCell>
        <mxCell id="WCuqPz3NQp58f8Igei0k-11" value="&lt;p style=&quot;margin-top: 0pt ; margin-bottom: 0pt ; margin-left: 0in ; direction: ltr ; unicode-bidi: embed ; word-break: normal&quot;&gt;&lt;span style=&quot;font-size: 16pt ; font-weight: bold&quot;&gt;土培&lt;/span&gt;&lt;/p&gt;&lt;span style=&quot;font-size: 21.3333px ; font-weight: 700&quot;&gt;(人工气候室&lt;/span&gt;&lt;span style=&quot;font-weight: 700 ; font-size: 21.3333px&quot;&gt;)&lt;/span&gt;&lt;span style=&quot;font-size: 21.3333px ; font-weight: 700&quot;&gt;&lt;br&gt;&lt;/span&gt;" style="whiteSpace=wrap;html=1;rounded=1;fillColor=#eeeeee;strokeColor=#36393d;" vertex="1" parent="1">
          <mxGeometry x="-11.25" y="400" width="140" height="55" as="geometry" />
        </mxCell>
        <mxCell id="WCuqPz3NQp58f8Igei0k-12" value="&lt;p style=&quot;margin-top: 0pt ; margin-bottom: 0pt ; margin-left: 0in ; direction: ltr ; unicode-bidi: embed ; word-break: normal&quot;&gt;&lt;span style=&quot;font-size: 16pt ; font-weight: bold&quot;&gt;无菌水培&lt;/span&gt;&lt;/p&gt;&lt;p style=&quot;margin-top: 0pt ; margin-bottom: 0pt ; margin-left: 0in ; direction: ltr ; unicode-bidi: embed ; word-break: normal&quot;&gt;&lt;span style=&quot;font-size: 16pt ; font-weight: bold&quot;&gt;（抗生素）&lt;/span&gt;&lt;/p&gt;" style="whiteSpace=wrap;html=1;rounded=1;fillColor=#eeeeee;strokeColor=#36393d;" vertex="1" parent="1">
          <mxGeometry y="470" width="128.75" height="55" as="geometry" />
        </mxCell>
        <mxCell id="WCuqPz3NQp58f8Igei0k-13" value="&lt;p style=&quot;margin-top: 0pt ; margin-bottom: 0pt ; margin-left: 0in ; direction: ltr ; unicode-bidi: embed ; word-break: normal&quot;&gt;&lt;span style=&quot;font-size: 16pt ; font-weight: bold&quot;&gt;非靶向&lt;/span&gt;&lt;span style=&quot;font-size: 16pt ; font-weight: bold&quot;&gt;植物&lt;/span&gt;&lt;span style=&quot;font-size: 16pt ; font-weight: bold&quot;&gt;代谢组&lt;/span&gt;&lt;/p&gt;" style="whiteSpace=wrap;html=1;rounded=1;fillColor=#eeeeee;strokeColor=#36393d;" vertex="1" parent="1">
          <mxGeometry x="-37.5" y="585" width="177.5" height="45" as="geometry" />
        </mxCell>
        <mxCell id="WCuqPz3NQp58f8Igei0k-14" value="&lt;p style=&quot;margin-top: 0pt ; margin-bottom: 0pt ; margin-left: 0in ; direction: ltr ; unicode-bidi: embed ; word-break: normal&quot;&gt;&lt;span style=&quot;font-size: 16pt ; font-weight: bold&quot;&gt;非靶向&lt;/span&gt;&lt;span style=&quot;font-size: 16pt ; font-weight: bold&quot;&gt;植物&lt;/span&gt;&lt;span style=&quot;font-size: 16pt ; font-weight: bold&quot;&gt;代谢组&lt;/span&gt;&lt;/p&gt;" style="whiteSpace=wrap;html=1;rounded=1;fillColor=#eeeeee;strokeColor=#36393d;" vertex="1" parent="1">
          <mxGeometry x="-130" y="750" width="177.5" height="45" as="geometry" />
        </mxCell>
        <mxCell id="WCuqPz3NQp58f8Igei0k-15" value="&lt;p style=&quot;margin-top: 0pt ; margin-bottom: 0pt ; margin-left: 0in ; direction: ltr ; unicode-bidi: embed ; word-break: normal&quot;&gt;&lt;span style=&quot;color: rgb(102 , 102 , 102) ; font-family: &amp;#34;microsoft yahei&amp;#34; , &amp;#34;arial&amp;#34; , &amp;#34;helvetica&amp;#34; , sans-serif ; font-size: 13px ; text-align: left&quot;&gt;土壤酸碱度&lt;/span&gt;&lt;br&gt;&lt;/p&gt;" style="whiteSpace=wrap;html=1;rounded=1;fillColor=#eeeeee;strokeColor=#36393d;" vertex="1" parent="1">
          <mxGeometry x="-207.5" y="550" width="97.5" height="30" as="geometry" />
        </mxCell>
        <mxCell id="WCuqPz3NQp58f8Igei0k-16" value="&lt;span style=&quot;color: rgb(102 , 102 , 102) ; font-family: &amp;#34;microsoft yahei&amp;#34; , &amp;#34;arial&amp;#34; , &amp;#34;helvetica&amp;#34; , sans-serif ; font-size: 13px ; text-align: left&quot;&gt;土壤营养指标&lt;/span&gt;" style="whiteSpace=wrap;html=1;rounded=1;fillColor=#eeeeee;strokeColor=#36393d;" vertex="1" parent="1">
          <mxGeometry x="-215" y="620" width="80" height="40" as="geometry" />
        </mxCell>
        <mxCell id="WCuqPz3NQp58f8Igei0k-17" value="&lt;span style=&quot;color: rgb(102 , 102 , 102) ; font-family: &amp;#34;microsoft yahei&amp;#34; , &amp;#34;arial&amp;#34; , &amp;#34;helvetica&amp;#34; , sans-serif ; font-size: 13px ; text-align: left&quot;&gt;土壤有机质&lt;/span&gt;" style="whiteSpace=wrap;html=1;rounded=1;fillColor=#eeeeee;strokeColor=#36393d;" vertex="1" parent="1">
          <mxGeometry x="-250" y="680" width="110" height="40" as="geometry" />
        </mxCell>
      </root>
    </mxGraphModel>
  </diagram>
</mxfile>
